<?xml version="1.0" encoding="UTF-8"?>
<svg id="Layer_2" data-name="Layer 2" xmlns="http://www.w3.org/2000/svg" viewBox="0 0 528.85 493">
  <defs>
    <style>
      .cls-1 {
        fill: #fff;
      }

      .cls-2 {
        fill: #72eefb;
      }

      .cls-3 {
        fill: #a0bbd4;
      }

      .cls-4 {
        fill: #6678de;
      }

      .cls-5 {
        fill: #16284d;
      }

      .cls-6 {
        fill: #133371;
      }

      .cls-7 {
        fill: #434c5d;
      }

      .cls-8 {
        fill: #142b5a;
      }

      .cls-9 {
        fill: #0c2567;
      }

      .cls-10 {
        fill: #58b7c4;
      }

      .cls-11 {
        fill: #5b6bc4;
      }

      .cls-12 {
        fill: #5abdd2;
      }

      .cls-13 {
        fill: #264079;
      }

      .cls-14 {
        fill: #397081;
      }

      .cls-15 {
        fill: #798edb;
      }

      .cls-16 {
        fill: #5321d1;
      }
    </style>
  </defs>
  <g id="Layer_1-2" data-name="Layer 1">
    <g>
      <path class="cls-2" d="m159.74,257.8l-.52-1.77c-.44-1.53-.88-3.06-1.31-4.58.35-1.17.69-2.35,1.04-3.52-.4-1.6-.67-3.22-.75-4.86-.12-.5-.23-1-.35-1.5-.38-.28-1.02-.5-1.12-.86-8.54-31.52-34.86-54.21-67.33-57.71-10.93.15-21.87.3-32.8.44,6.35,5.92,13.88,11,18.83,17.92,14.53,20.29,5.19,52.28-20.82,61.04-18.66,6.28-32.77.23-45.74-11.9C5.26,247.13,2.92,242.41,0,238.31v29.79c.97,2.48,1.95,4.96,2.92,7.44-.06,1.05-.11,2.1-.17,3.15,0,1.45.02,2.9.03,4.35,0,1.51,0,3.02,0,4.54.39.67.77,1.35,1.14,2.03.17.18.33.36.5.53.14.14.18.38.1.56,3.29,6.05,6.28,12.34,10.52,17.63,10.25,12.79,21.72,24.44,38.57,28.53,1.55.86,3.11,1.72,4.66,2.58,1.54.47,3.09.94,4.63,1.4,3.84.17,7.68.34,11.52.51,3.51,0,7.02,0,10.54.01l10.2-.46c2.06-.83,4.11-1.67,6.17-2.5,1.48-.52,2.97-1.04,4.45-1.56,25.08-6.58,46.14-32.53,50.84-53.87,1.16-3.54,2.33-7.08,3.49-10.62-.25-1.46-.49-2.92-.74-4.38.12-3.39.24-6.79.37-10.18Z"/>
      <path class="cls-16" d="m56.59,183.44c6.35,5.92,13.88,11,18.83,17.92,14.53,20.29,5.19,52.28-20.82,61.04-18.66,6.28-32.77.23-45.74-11.9-3.61-3.37-5.95-8.09-8.87-12.19,0-.5,0-.99,0-1.49.48-.83,1.37-1.66,1.37-2.48-.11-17.08-.31-34.16-.5-51.25,2.69-.4,5.38-.79,8.07-1.19,12.01-.06,24.02-.12,36.02-.18,3.87.57,7.75,1.14,11.63,1.71Z"/>
      <path class="cls-1" d="m440.98,491.29h86.38V0c.5,2.23,1.43,4.47,1.43,6.7.07,119.9.06,239.8.06,359.7v126.6c-174.05,0-348.1,0-522.15-.06-2.23,0-4.47-.93-6.7-1.43,8.65,0,17.31.17,25.95-.05,5.8-.15,11.59-.84,17.38-1.28,5.44.37,10.87.74,16.31,1.12,28.73,0,57.46,0,86.19,0,11.05.07,22.1.29,33.15.15,4.32-.06,8.62-.92,12.93-1.42,1.25.5,2.5,1.43,3.75,1.43,21.64,0,43.29-.11,64.93-.19,18.91,0,37.82.02,56.73.02.93,0,1.87,0,2.8,0,22.95.01,45.89.02,68.84.03,17.34,0,34.68-.01,52.02-.02Z"/>
      <path class="cls-3" d="m43.33,490.18c-5.79.45-11.58,1.14-17.38,1.28-8.65.22-17.3.05-25.95.05C0,470.16,0,448.81,0,427.47c.89.1,1.78.19,2.68.29.68,4.34,1.37,8.68,2.05,13.02.83,1.61,1.66,3.22,2.49,4.82.79,2.32,1.29,4.79,2.4,6.94,7.98,15.44,19.81,27.49,33.72,37.64Z"/>
      <path class="cls-7" d="m1.24,181.42c-.42-.01-.84-.09-1.24-.21,0,.66,0,1.32,0,1.99.3.03.59,0,.87-.11,2.68-.4,5.37-.79,8.06-1.19-.62-.25-1.24-.5-1.88-.75-1.9.23-3.84.33-5.81.26Z"/>
      <path class="cls-15" d="m2.67,427.75c-.89-.1-1.78-.19-2.67-.29,0-28.3,0-56.6,0-84.9.52.12,1.03.24,1.55.35-.02,13.3-.2,26.6-.02,39.9.21,14.98.75,29.95,1.14,44.93Z"/>
      <path class="cls-7" d="m2.12,287.12c.19.32.37.65.56.97.03-.17.06-.34.09-.52,0-1.51,0-3.02,0-4.54-.93-.51-1.85-1.02-2.78-1.54v1.02c.7,1.54,1.39,3.08,2.12,4.6Z"/>
      <path class="cls-11" d="m0,183.2c.3.03.59,0,.87-.11.18,17.08.39,34.16.49,51.25,0,.82-.89,1.65-1.37,2.48,0-17.87,0-35.75,0-53.62Z"/>
      <path class="cls-12" d="m0,268.1c.97,2.48,1.95,4.96,2.92,7.44-.97-.49-1.95-.99-2.92-1.48,0-1.99,0-3.97,0-5.96Z"/>
      <path class="cls-14" d="m2.78,283.04c-.93-.51-1.85-1.02-2.78-1.54,0-1.49,0-2.98,0-4.47.92.55,1.83,1.1,2.75,1.66,0,1.45.02,2.9.03,4.35Z"/>
      <path class="cls-10" d="m2.75,278.69c-.92-.55-1.83-1.1-2.75-1.66,0-.99,0-1.99,0-2.98.97.49,1.95.99,2.92,1.48-.06,1.05-.11,2.1-.17,3.15Z"/>
      <path class="cls-2" d="m163.67,143.04c5.68-13.27,10.45-27.03,17.23-39.71,12.95-24.22,32.21-42.83,55.35-57.48,27.16-17.2,57.09-24.01,88.91-23.96,48.15.06,96.31.02,144.46.02,2.94,0,5.88,0,10.26,0-.69,10.22-.19,19.93-2.19,29.1-4.85,22.32-12.72,43.55-26.34,62.33-20.83,28.72-47.65,48.9-81.47,60.31-20.56,6.94-41.45,8.65-62.79,8.4-14.39-.17-28.77-.33-43.16-.5-.05-.85-.09-1.71-.14-2.56,8.93-5.29,18.3-9.97,26.71-15.99,18.64-13.34,26.28-33.06,29.78-54.81.82-5.09-1.44-7.08-6.66-7.03-26.01.23-52.02.23-78.04.3-.59-.05-1.17-.09-1.75-.14-.97.5-1.95,1-2.92,1.49-4.73.95-9.51,1.66-14.17,2.88-21.24,5.52-36.54,18.52-47.14,37.52-1.25,2.24-3.72,3.8-5.63,5.67-.11-1.94-.21-3.89-.32-5.83Z"/>
      <path class="cls-6" d="m320.28,403.66c.01-2.5.03-4.99.04-7.49-.11-21.81-.23-43.61-.34-65.42-.4-2.02-.8-4.04-1.21-6.05-4.32-22.6-9.77-44.7-21.84-64.8-22.54-37.53-55.38-60.9-97.18-72.34-2.37-.65-5.12.11-7.7.22,17.22,8.88,30.79,21.55,39.77,38.82,6.51,12.51,7.37,26.35,8.85,40.01,1.08-3.76,2.15-7.52,3.64-12.71,0,10.54,0,19.76,0,28.98,0,17.3.04,34.59-.05,51.89-.01,2.23,1.46,6.27-3.71,4.59-8.17,4.01-16.11,1.35-23.88-1.17-27.63-8.96-44.77-28.34-54.19-55.23-.92.54-1.83,1.08-2.75,1.63-.07,15.98-.05,31.97-.28,47.95-.05,3.1-1.06,6.19-1.63,9.28.41,3.23.82,6.47,1.22,9.7-.35.57-.7,1.13-1.04,1.7-.02.4.02.8.12,1.19.36,2.52.73,5.04,1.09,7.57.01.94.02,1.87.04,2.81,1.44,2.98,3.66,5.83,4.21,8.96,7.49,42.5,30.67,74.66,65.5,98.89,10.02,6.97,21.06,12.46,31.63,18.63,18.91,0,37.82.02,56.73.02,0-23.7-.09-47.4.11-71.1.02-2.56,1.64-5.1,2.52-7.66.52-2.48,1.04-4.97,1.56-7.45-.41-.47-.83-.94-1.24-1.41Zm-.54-20.63c-.64,0-.64-1,0-1s.64,1,0,1Z"/>
      <path class="cls-6" d="m313.64,101.14c-26.01.23-52.02.23-78.03.31l-1.74,1.4c-.98-.02-1.96-.04-2.94-.05-4.73.95-9.51,1.66-14.17,2.88-21.24,5.52-36.54,18.52-47.14,37.52-1.25,2.24-3.72,3.8-5.63,5.67-.12,2.4-.24,4.8-.4,7.83-6.35-3.64-3.59-9.17-4.01-13.78-.03-16.86-.06-33.71-.09-50.57-.45-1.05-.89-2.09-1.33-3.14-5.59-33.17-25.18-53.93-56.79-64.03-.7-.31-1.4-.62-2.1-.94-1.83-.25-3.68-.33-5.51-.6-.93-.04-1.86-.08-2.79-.11-3.52.08-7.05.15-10.57.23,0,26.27.28,52.55-.11,78.82-.24,16.26,4.44,31.04,13.6,43.88,16.04,22.5,37.3,36.47,66.22,35.58.19.29.46.42.81.39.24.12.49.23.73.35.02,0,.05,0,.07,0-.07-.29.08-.64.46-.64,3.35,0,6.69-.29,10.02-.49,2.22-.14,4.47-.28,6.71-.22,1.47-.37,2.93-.73,4.4-1.1,1.52.1,3.04.2,4.56.3,10.97.81,21.94,2.12,32.92,2.29,11.74.18,23.5-.71,35.25-1.13,1.14-.44,2.28-.87,3.43-1.31,1.44-.5,2.89-.99,4.33-1.49,8.93-5.29,18.3-9.97,26.71-15.99,18.64-13.34,26.28-33.06,29.78-54.81.82-5.09-1.44-7.08-6.66-7.03Z"/>
      <path class="cls-4" d="m319.95,412.52c.52-2.48,1.04-4.97,1.56-7.45.19-.48.2-.96.03-1.45.65-2.44,1.29-4.88,1.94-7.32,7.46-19.21,19.39-34.72,37.8-44.55,16.57-8.83,34-11.09,52.72-7.99,22.98,3.81,40.06,15.34,52.47,34.72,16.77,26.2,17.97,53.2,4.07,80.75-6.74,13.36-17.81,23.12-29.57,32.05-17.34,0-34.68.01-52.02.02,15.96-17.2,16.32-37.23,7.84-51.23-10.03-16.56-24.85-21.83-42.72-19.87-15.25,1.67-24.78,11.67-31.02,25.11-.75,0-1.51-.01-2.26-.02-.28-10.92-.57-21.85-.85-32.77Z"/>
      <path class="cls-5" d="m163.99,148.87c-.12,2.4-.24,4.8-.4,7.83-6.35-3.64-3.59-9.17-4.01-13.78,1.36.04,2.73.08,4.09.13.11,1.94.21,3.89.32,5.83Z"/>
      <path class="cls-10" d="m259.47,180.47c1.44-.5,2.89-.99,4.33-1.49.05.85.09,1.71.14,2.56-1.44.31-2.88.62-4.32.94-.05-.67-.1-1.34-.16-2.01Z"/>
      <path class="cls-14" d="m259.47,180.47c.05.67.1,1.34.16,2.01-1.19-.23-2.39-.47-3.58-.7,1.14-.44,2.28-.87,3.43-1.31Z"/>
      <path class="cls-4" d="m157.83,341.81c.41,3.23.82,6.47,1.23,9.7-.35.57-.7,1.13-1.05,1.7-.02.4.02.8.12,1.19.36,2.52.73,5.04,1.09,7.56.01.94.02,1.87.04,2.81-2.57,9.26-4.62,18.69-7.79,27.74-13.41,38.33-38.14,67.44-72.94,88.13-6.21,3.69-12.59,7.1-18.89,10.65-5.44-.37-10.87-.74-16.31-1.12-13.91-10.16-25.74-22.2-33.72-37.64-1.11-2.15-1.62-4.62-2.4-6.94-.83-1.61-1.66-3.21-2.49-4.82-.68-4.34-1.36-8.68-2.05-13.02-.4-14.97-.94-29.95-1.15-44.93-.19-13.3,0-26.6.02-39.9.14-.48.18-.97.13-1.46,17.25.03,34.5.06,51.76.08,1.04.28,2.07.55,3.11.83,2.01.1,4.02.19,6.03.29,4.17,1.6,8.39,3.58,11.86-1.3,3.51,0,7.02,0,10.54.01,2.98,4.44,6.64,3.1,10.37,1.23,2.51-.08,5.01-.16,7.52-.24,1.04-.27,2.07-.54,3.11-.81,17.29.08,34.57.17,51.86.25Z"/>
      <path class="cls-11" d="m74.43,341.36c-3.47,4.88-7.68,2.89-11.86,1.29.11-.6.22-1.2.33-1.81,3.84.17,7.68.34,11.52.51Z"/>
      <path class="cls-11" d="m95.34,342.6c-3.73,1.87-7.39,3.21-10.37-1.23,3.4-.15,6.8-.3,10.2-.45.06.56.11,1.12.17,1.68Z"/>
      <path class="cls-10" d="m160.2,272.05s-.09.31-.09.31c-.24-1.46-.49-2.92-.74-4.38.27,1.36.55,2.71.82,4.07Z"/>
      <path class="cls-2" d="m323.07,445.31c6.25-13.44,15.77-23.43,31.02-25.11,17.86-1.96,32.69,3.31,42.72,19.87,8.48,14,8.11,34.03-7.84,51.23-22.95-.01-45.89-.02-68.84-.03.17-12.8.35-25.59.52-38.39.18-1.06.35-2.11.53-3.17.05-.91.11-1.82.16-2.74.58-.55,1.15-1.11,1.72-1.66Z"/>
      <path class="cls-2" d="m145.83,491.29c.5-9.5,6.31-14.87,14.58-17.86,9.2-3.33,20.38-.69,25.7,6.12,2.43,3.11,3.9,6.96,5.81,10.48-4.31.5-8.62,1.36-12.93,1.42-11.05.14-22.1-.08-33.15-.15Z"/>
      <path class="cls-9" d="m320.65,452.89c-.17,12.8-.35,25.6-.52,38.39-.93,0-1.87,0-2.8,0,0-23.7-.09-47.4.11-71.1.02-2.56,1.64-5.1,2.52-7.66.28,10.92.57,21.85.86,32.77.18.56.36,1.12.53,1.69-.05.91-.11,1.82-.16,2.74-.18,1.06-.35,2.11-.53,3.17Z"/>
      <path class="cls-15" d="m4.72,440.77c.83,1.61,1.66,3.21,2.49,4.82-.83-1.61-1.66-3.21-2.49-4.82Z"/>
      <path class="cls-13" d="m233.87,102.85c-.98-.02-1.96-.04-2.94-.05.97-.5,1.95-1,2.92-1.49,0,.52.01,1.03.02,1.55Z"/>
      <path class="cls-12" d="m233.87,102.85c0-.52-.01-1.03-.02-1.55.58.05,1.17.09,1.75.14-.58.47-1.16.94-1.74,1.41Z"/>
      <path class="cls-9" d="m240.56,339.35c.04-24.25.08-48.49.12-72.74,1.08-3.76,2.15-7.52,3.64-12.71,0,10.54,0,19.76,0,28.98,0,17.3.04,34.59-.05,51.89-.01,2.23,1.46,6.27-3.71,4.59Z"/>
      <path class="cls-11" d="m159.22,361.97c-.37-2.52-.73-5.04-1.09-7.56.37,2.52.73,5.04,1.09,7.56Z"/>
      <path class="cls-11" d="m158.01,353.21c.35-.57.7-1.13,1.05-1.7-.35.57-.7,1.13-1.05,1.7Z"/>
      <path class="cls-8" d="m320.28,403.66c.42-.02.85-.04,1.27-.04.16.49.15.97-.03,1.45-.41-.47-.83-.94-1.24-1.41Z"/>
      <path class="cls-11" d="m321.34,446.98c-.18-.56-.35-1.13-.53-1.69.75,0,1.5.02,2.26.02-.58.55-1.15,1.11-1.73,1.66Z"/>
      <path class="cls-13" d="m320.65,452.89c.18-1.06.35-2.11.53-3.17-.18,1.06-.35,2.11-.53,3.17Z"/>
    </g>
  </g>
</svg>